<svg width="37" height="36" viewBox="0 0 37 36" fill="none" xmlns="http://www.w3.org/2000/svg">
<path d="M27.2877 11.149C26.5014 11.2041 26.0835 10.621 25.5506 10.1573L23.2533 8.14064C21.768 6.84272 20.288 5.53957 18.826 4.21553C18.1872 3.6371 17.2708 3.16278 17.1622 2.27723C17.0439 1.31367 17.8013 0.612469 18.7105 0.504806C19.4435 0.452561 19.7575 0.833205 20.2258 1.30938C22.1026 3.21708 24.6169 5.27125 26.6903 7.01307L27.7831 7.92494C28.2429 8.30559 28.7176 8.61159 28.8125 9.2529C28.9581 10.2359 28.2317 11.0134 27.2877 11.149ZM9.28531 13.2137L16.7597 4.96487C16.9467 5.04585 17.6625 5.73624 17.8752 5.9204C20.0068 7.76821 22.1839 9.91605 24.3708 11.6525C23.9336 12.199 23.4343 12.6996 22.9654 13.2189L18.432 18.2869C17.9619 18.8056 17.4766 19.4077 16.9743 19.8816C14.4477 17.7704 11.7087 15.446 9.28531 13.2137ZM15.045 24.2969C14.2865 24.3283 13.8836 23.9012 13.3647 23.4427L6.12018 17.0792C5.8235 16.8227 5.49808 16.5704 5.24078 16.2739C4.30521 15.1962 4.98142 13.6732 6.35528 13.5447C7.19568 13.5488 7.74407 14.2328 8.3225 14.751L14.613 20.2927C15.14 20.7638 15.7383 21.1982 16.2069 21.7263C17.0921 22.7234 16.3324 24.1111 15.045 24.2969ZM20.1999 19.2103C21.1237 18.2204 22.0289 17.2093 22.9198 16.1894C23.4337 16.5652 23.8923 17.0391 24.3715 17.4591L35.4964 27.3949C36.315 28.1157 37.0604 28.6109 36.8001 29.8637C36.554 31.0489 35.3648 31.6762 34.2266 31.4277C33.5816 31.2082 33.1974 30.7429 32.7061 30.2973L30.557 28.3527L21.2616 20.1634C20.9364 19.8723 20.4787 19.5299 20.1999 19.2105M3.42936 29.9641C3.61539 28.8389 4.50207 27.9481 5.64101 27.7921C6.16794 27.7479 6.76354 27.791 7.29943 27.7916L13.8306 27.791C15.5592 27.7908 17.1954 27.8058 17.4514 29.9641H3.42936ZM0.148727 35.5L0.146488 34.3767C0.144435 32.1612 1.08242 31.8803 3.06439 31.8809L13.1656 31.8818L17.4762 31.8816C18.6238 31.8813 20.2628 31.5676 20.722 32.9915C20.8888 33.5091 20.8151 34.882 20.8136 35.5H0.148727Z" fill="#F26727"/>
</svg>
